<svg xmlns="http://www.w3.org/2000/svg" viewBox="-5043 6421 24 24">
  <defs>
    <style>
      .cls-1, .cls-2 {
        fill: #2c84c8;
      }

      .cls-1 {
        opacity: 0.25;
      }
    </style>
  </defs>
  <g id="Page" transform="translate(-5416 6364)">
    <rect id="Rectangle_147" data-name="Rectangle 147" class="cls-1" width="24" height="24" transform="translate(373 57)"/>
    <path id="file-alt-solid" class="cls-2" d="M5.25,3.188V0H.563A.561.561,0,0,0,0,.563V11.438A.561.561,0,0,0,.563,12H8.438A.561.561,0,0,0,9,11.438V3.75H5.813A.564.564,0,0,1,5.25,3.188Zm1.5,5.531A.282.282,0,0,1,6.469,9H2.531a.282.282,0,0,1-.281-.281V8.531a.282.282,0,0,1,.281-.281H6.469a.282.282,0,0,1,.281.281Zm0-1.5a.282.282,0,0,1-.281.281H2.531a.282.282,0,0,1-.281-.281V7.031a.282.282,0,0,1,.281-.281H6.469a.282.282,0,0,1,.281.281Zm0-1.688v.188A.282.282,0,0,1,6.469,6H2.531a.282.282,0,0,1-.281-.281V5.531a.282.282,0,0,1,.281-.281H6.469A.282.282,0,0,1,6.75,5.531ZM9,2.857V3H6V0h.143a.562.562,0,0,1,.4.164l2.295,2.3A.561.561,0,0,1,9,2.857Z" transform="translate(381 62)"/>
  </g>
</svg>
