<svg xmlns="http://www.w3.org/2000/svg" viewBox="20223 4236 24 24">
  <defs>
    <style>
      .cls-1, .cls-2 {
        fill: #2c84c8;
      }

      .cls-2 {
        opacity: 0.25;
      }
    </style>
  </defs>
  <g id="Page" transform="translate(19546 2106)">
    <path id="file-solid" class="cls-1" d="M5.25,3.188V0H.563A.561.561,0,0,0,0,.563V11.438A.561.561,0,0,0,.563,12H8.438A.561.561,0,0,0,9,11.438V3.75H5.813A.564.564,0,0,1,5.25,3.188ZM9,2.857V3H6V0h.143a.562.562,0,0,1,.4.164l2.295,2.3A.561.561,0,0,1,9,2.857Z" transform="translate(684.5 2136)"/>
    <rect id="Rectangle_149" data-name="Rectangle 149" class="cls-2" width="24" height="24" transform="translate(677 2130)"/>
  </g>
</svg>
