<svg xmlns="http://www.w3.org/2000/svg" viewBox="-5310 6827 24 24">
  <defs>
    <style>
      .cls-1, .cls-2 {
        fill: #ff8949;
      }

      .cls-1 {
        opacity: 0.25;
      }
    </style>
  </defs>
  <g id="Scorm" transform="translate(-5409 6363)">
    <path id="Path_694" data-name="Path 694" class="cls-1" d="M0,0H24V24H0Z" transform="translate(99 464)"/>
    <path id="cube-solid" class="cls-2" d="M5.605,3.309.729,5.138A1.127,1.127,0,0,0,0,6.193v5.277a1.125,1.125,0,0,0,.621,1.006L5.5,14.913a1.117,1.117,0,0,0,1.006,0l4.876-2.438A1.123,1.123,0,0,0,12,11.469V6.193a1.124,1.124,0,0,0-.729-1.053L6.4,3.312A1.106,1.106,0,0,0,5.605,3.309ZM6,4.765l4.5,1.688v.026L6,8.307,1.5,6.479V6.453Zm.75,8.345V9.62L10.5,8.1v3.139Z" transform="translate(105 467.341)"/>
  </g>
</svg>
