<svg xmlns="http://www.w3.org/2000/svg" viewBox="-5043 6489 24 24">
  <defs>
    <style>
      .cls-1, .cls-2 {
        fill: #ff8949;
      }

      .cls-1 {
        opacity: 0.25;
      }
    </style>
  </defs>
  <g id="IMS" transform="translate(-5416 6364)">
    <rect id="Rectangle_147" data-name="Rectangle 147" class="cls-1" width="24" height="24" transform="translate(373 125)"/>
    <path id="cubes-solid" class="cls-2" d="M11.452,37.09l-2.264-.848V33.7a.844.844,0,0,0-.548-.79L6.3,32.029a.834.834,0,0,0-.593,0l-2.344.879a.844.844,0,0,0-.548.79v2.543L.546,37.09a.845.845,0,0,0-.546.79v2.58a.845.845,0,0,0,.466.755L2.81,42.387a.839.839,0,0,0,.755,0L6,41.168l2.435,1.219a.839.839,0,0,0,.755,0l2.344-1.172A.845.845,0,0,0,12,40.46v-2.58A.844.844,0,0,0,11.452,37.09Zm-3.061-.83L6.4,37.008v-1.6l1.992-.867ZM3.609,33.665,6,32.77l2.391.9v.014L6,34.65l-2.391-.97Zm1.969,6.823-1.992,1V39.63l1.992-.909Zm0-2.625-2.391.97L.8,37.863v-.014l2.391-.9,2.391.9ZM11.2,40.488l-1.992,1V39.63l1.992-.909Zm0-2.625-2.391.97-2.391-.97v-.014l2.391-.9,2.391.9Z" transform="translate(379 100.025)"/>
  </g>
</svg>
