<svg xmlns="http://www.w3.org/2000/svg" viewBox="-5311 6788 24 24">
  <defs>
    <style>
      .cls-1, .cls-2 {
        fill: #a54089;
      }

      .cls-1 {
        opacity: 0.25;
      }
    </style>
  </defs>
  <g id="Quiz" transform="translate(-5409 6329)">
    <rect id="Rectangle_152" data-name="Rectangle 152" class="cls-1" width="24" height="24" transform="translate(98 459)"/>
    <path id="tasks-solid" class="cls-2" d="M4.85,34.319H11.6a.376.376,0,0,0,.375-.375v-.937a.376.376,0,0,0-.375-.375H4.85a.376.376,0,0,0-.375.375v.937A.376.376,0,0,0,4.85,34.319Zm0,3.75H11.6a.376.376,0,0,0,.375-.375v-.937a.376.376,0,0,0-.375-.375H4.85a.376.376,0,0,0-.375.375v.937A.376.376,0,0,0,4.85,38.069Zm0,3.75H11.6a.376.376,0,0,0,.375-.375v-.937a.376.376,0,0,0-.375-.375H4.85a.376.376,0,0,0-.375.375v.937A.376.376,0,0,0,4.85,41.819ZM1.476,39.85a1.125,1.125,0,1,0,0,2.25,1.125,1.125,0,1,0,0-2.25Zm2.168-7.007L1.951,34.535l-.366.366a.3.3,0,0,1-.412,0L.058,33.79a.281.281,0,0,1,0-.4l.368-.368a.281.281,0,0,1,.4,0l.532.518,1.493-1.484a.281.281,0,0,1,.4,0l.4.387A.284.284,0,0,1,3.643,32.843Zm0,3.74L1.951,38.275l-.368.368a.3.3,0,0,1-.412,0L.058,37.53a.281.281,0,0,1,0-.4l.368-.368a.281.281,0,0,1,.4,0l.532.518,1.493-1.493a.281.281,0,0,1,.4,0l.4.4A.281.281,0,0,1,3.643,36.583Z" transform="translate(104.025 434.025)"/>
  </g>
</svg>
