<svg xmlns="http://www.w3.org/2000/svg" viewBox="-5310 6866 24 24">
  <defs>
    <style>
      .cls-1, .cls-2 {
        fill: #007f7b;
      }

      .cls-1 {
        opacity: 0.25;
      }
    </style>
  </defs>
  <g id="Survey" transform="translate(-5409 6363)">
    <rect id="Rectangle_154" data-name="Rectangle 154" class="cls-1" width="24" height="24" transform="translate(99 503)"/>
    <path id="poll-solid" class="cls-2" d="M10.714,32H1.286A1.286,1.286,0,0,0,0,33.286v9.429A1.286,1.286,0,0,0,1.286,44h9.429A1.286,1.286,0,0,0,12,42.714V33.286A1.286,1.286,0,0,0,10.714,32ZM4.286,41a.428.428,0,0,1-.429.429H3A.428.428,0,0,1,2.571,41V37.571A.428.428,0,0,1,3,37.143h.857a.428.428,0,0,1,.429.429Zm2.571,0a.428.428,0,0,1-.429.429H5.571A.428.428,0,0,1,5.143,41V35a.428.428,0,0,1,.429-.429h.857A.428.428,0,0,1,6.857,35Zm2.571,0A.428.428,0,0,1,9,41.429H8.143A.428.428,0,0,1,7.714,41V39.286a.428.428,0,0,1,.429-.429H9a.428.428,0,0,1,.429.429Z" transform="translate(106 478)"/>
  </g>
</svg>
