<svg xmlns="http://www.w3.org/2000/svg" viewBox="-5311 6467 24 24">
  <defs>
    <style>
      .cls-1, .cls-2 {
        fill: #68bd49;
      }

      .cls-1 {
        opacity: 0.25;
      }
    </style>
  </defs>
  <g id="Chat" transform="translate(-6780 5195)">
    <rect id="Rectangle_143" data-name="Rectangle 143" class="cls-1" width="24" height="24" transform="translate(1469 1272)"/>
    <path id="comments-regular_1_" data-name="comments-regular (1)" class="cls-2" d="M11.075,39.378a2.868,2.868,0,0,0,.917-2.046c0-1.666-1.594-3.043-3.67-3.289a4.5,4.5,0,0,0-4-2.044C1.933,32-.007,33.491-.007,35.333A2.876,2.876,0,0,0,.91,37.379a5.454,5.454,0,0,1-.785,1.144.482.482,0,0,0,.35.812,4.788,4.788,0,0,0,2.608-.808,5.938,5.938,0,0,0,.592.1,4.489,4.489,0,0,0,3.985,2.037A5.514,5.514,0,0,0,8.9,40.524a4.8,4.8,0,0,0,2.608.808.482.482,0,0,0,.35-.812A5.309,5.309,0,0,1,11.075,39.378ZM2.893,37.456l-.356.231a4.239,4.239,0,0,1-.9.446c.056-.1.112-.2.167-.308l.323-.648-.517-.51a1.91,1.91,0,0,1-.619-1.333C.993,34.069,2.52,33,4.326,33s3.333,1.069,3.333,2.333-1.527,2.333-3.333,2.333a4.539,4.539,0,0,1-1.021-.117l-.412-.094Zm7.48,1.21-.515.508.323.648c.054.106.11.21.167.308a4.239,4.239,0,0,1-.9-.446l-.356-.231-.415.1a4.539,4.539,0,0,1-1.021.117A3.876,3.876,0,0,1,4.924,38.63c2.11-.225,3.735-1.612,3.735-3.3,0-.071-.008-.14-.015-.208,1.342.3,2.348,1.183,2.348,2.208A1.91,1.91,0,0,1,10.373,38.666Z" transform="translate(1475.007 1247)"/>
  </g>
</svg>
