<svg xmlns="http://www.w3.org/2000/svg" viewBox="-5311 6705 24 24">
  <defs>
    <style>
      .cls-1, .cls-2 {
        fill: #2c84c8;
      }

      .cls-1 {
        opacity: 0.25;
      }
    </style>
  </defs>
  <g id="Glossary" transform="translate(-5409 6363)">
    <path id="Path_692" data-name="Path 692" class="cls-1" d="M0,0H24V24H0Z" transform="translate(98 342)"/>
    <path id="list-solid_1_" data-name="list-solid (1)" class="cls-2" d="M3,49.594v-.937a.375.375,0,0,1,.375-.375h8.25a.375.375,0,0,1,.375.375v.938a.375.375,0,0,1-.375.375H3.375A.375.375,0,0,1,3,49.594Zm.375,4.125h8.25A.375.375,0,0,0,12,53.344v-.937a.375.375,0,0,0-.375-.375H3.375A.375.375,0,0,0,3,52.406v.938A.375.375,0,0,0,3.375,53.719Zm0,3.75h8.25A.375.375,0,0,0,12,57.094v-.937a.375.375,0,0,0-.375-.375H3.375A.375.375,0,0,0,3,56.156v.938A.375.375,0,0,0,3.375,57.469Zm-3-7.219h1.5a.375.375,0,0,0,.375-.375v-1.5A.375.375,0,0,0,1.875,48H.375A.375.375,0,0,0,0,48.375v1.5A.375.375,0,0,0,.375,50.25Zm0,3.75h1.5a.375.375,0,0,0,.375-.375v-1.5a.375.375,0,0,0-.375-.375H.375A.375.375,0,0,0,0,52.125v1.5A.375.375,0,0,0,.375,54Zm0,3.75h1.5a.375.375,0,0,0,.375-.375v-1.5a.375.375,0,0,0-.375-.375H.375A.375.375,0,0,0,0,55.875v1.5A.375.375,0,0,0,.375,57.75Z" transform="translate(104 301)"/>
  </g>
</svg>
