<svg xmlns="http://www.w3.org/2000/svg" viewBox="-5044 6765 24 24">
  <defs>
    <style>
      .cls-1, .cls-2 {
        fill: #576062;
      }

      .cls-1 {
        opacity: 0.25;
      }
    </style>
  </defs>
  <g id="OU_blog" data-name="OU blog" transform="translate(-5414 6325)">
    <path id="Path_695" data-name="Path 695" class="cls-1" d="M0,0H24V24H0Z" transform="translate(370 440)"/>
    <path id="file-medical-solid" class="cls-2" d="M8.836,2.461,6.541.164A.562.562,0,0,0,6.143,0H6V3H9V2.857A.561.561,0,0,0,8.836,2.461ZM5.25,3.188V0H.563A.561.561,0,0,0,0,.563V11.438A.561.561,0,0,0,.563,12H8.438A.561.561,0,0,0,9,11.438V3.75H5.813A.564.564,0,0,1,5.25,3.188Zm1.5,3.75V8.063a.188.188,0,0,1-.187.188H5.25V9.563a.188.188,0,0,1-.187.188H3.938a.188.188,0,0,1-.187-.187V8.25H2.438a.188.188,0,0,1-.187-.187V6.938a.188.188,0,0,1,.188-.187H3.75V5.438a.188.188,0,0,1,.188-.187H5.063a.188.188,0,0,1,.188.188V6.75H6.563A.188.188,0,0,1,6.75,6.938Z" transform="translate(378 446)"/>
  </g>
</svg>
