<svg xmlns="http://www.w3.org/2000/svg" viewBox="6351 2428 24 24">
  <defs>
    <style>
      .cls-1, .cls-2 {
        fill: #68bd49;
      }

      .cls-1 {
        opacity: 0.25;
      }
    </style>
  </defs>
  <g id="Group_197" data-name="Group 197" transform="translate(5986 1924)">
    <path id="Path_749" data-name="Path 749" class="cls-1" d="M0,0H24V24H0Z" transform="translate(365 504)"/>
    <path id="users-cog-solid" class="cls-2" d="M14.31,39.348a2.75,2.75,0,0,0,0-1l.6-.349a.17.17,0,0,0,.077-.2,3.518,3.518,0,0,0-.778-1.345A.171.171,0,0,0,14,36.422l-.6.349a2.752,2.752,0,0,0-.865-.5v-.7a.171.171,0,0,0-.134-.166,3.537,3.537,0,0,0-1.552,0,.171.171,0,0,0-.134.166v.7a2.752,2.752,0,0,0-.865.5l-.6-.349a.171.171,0,0,0-.211.033A3.518,3.518,0,0,0,8.256,37.8a.173.173,0,0,0,.077.2l.6.349a2.75,2.75,0,0,0,0,1l-.6.349a.17.17,0,0,0-.077.2,3.535,3.535,0,0,0,.778,1.345.171.171,0,0,0,.211.033l.6-.349a2.752,2.752,0,0,0,.865.5v.7a.171.171,0,0,0,.134.166,3.536,3.536,0,0,0,1.552,0,.171.171,0,0,0,.134-.166v-.7a2.752,2.752,0,0,0,.865-.5l.6.349a.171.171,0,0,0,.211-.033,3.518,3.518,0,0,0,.778-1.345.173.173,0,0,0-.077-.2Zm-2.684.638a1.137,1.137,0,1,1,1.137-1.137A1.138,1.138,0,0,1,11.626,39.985ZM2.25,36.6a1.5,1.5,0,1,0-1.5-1.5A1.5,1.5,0,0,0,2.25,36.6Zm5.251.75c.045,0,.087-.012.131-.014a4.321,4.321,0,0,1,.851-1.388.924.924,0,0,1,.677-.3.9.9,0,0,1,.459.124l.185.108.056-.033a2.6,2.6,0,0,0,.263-1.125A2.624,2.624,0,1,0,7.5,37.348Zm2.466,4.559c-.054-.028-.108-.061-.159-.091a1.158,1.158,0,0,1-.645.23.932.932,0,0,1-.677-.3,4.274,4.274,0,0,1-.942-1.631,1,1,0,0,1,.6-1.179q0-.091,0-.183l-.185-.108a.955.955,0,0,1-.23-.19c-.077,0-.152.014-.23.014A3.7,3.7,0,0,1,5.9,38.1H5.7A2.7,2.7,0,0,0,3,40.8v.675A1.125,1.125,0,0,0,4.125,42.6h5.987a.9.9,0,0,1-.145-.476v-.216ZM4.057,37.784A1.5,1.5,0,0,0,3,37.348H1.5a1.5,1.5,0,0,0-1.5,1.5v.75a.749.749,0,0,0,.75.75H2.295A3.437,3.437,0,0,1,4.057,37.784Z" transform="translate(370 478.9)"/>
  </g>
</svg>
