<svg xmlns="http://www.w3.org/2000/svg" viewBox="19949 4260 24 24">
  <defs>
    <style>
      .cls-1, .cls-2 {
        fill: #a54089;
      }

      .cls-1 {
        opacity: 0.25;
      }
    </style>
  </defs>
  <g id="Database" transform="translate(20055 2023)">
    <g id="Download" transform="translate(-106 2237)">
      <rect id="Rectangle_145" data-name="Rectangle 145" class="cls-1" width="24" height="24" transform="translate(0)"/>
    </g>
    <path id="database-solid" class="cls-2" d="M10.5,1.714V2.786C10.5,3.73,8.148,4.5,5.25,4.5S0,3.73,0,2.786V1.714C0,.77,2.352,0,5.25,0S10.5.77,10.5,1.714Zm0,2.411V6.536c0,.944-2.352,1.714-5.25,1.714S0,7.48,0,6.536V4.125A10.135,10.135,0,0,0,5.25,5.263,10.135,10.135,0,0,0,10.5,4.125Zm0,3.75v2.411C10.5,11.23,8.148,12,5.25,12S0,11.23,0,10.286V7.875A10.135,10.135,0,0,0,5.25,9.013,10.135,10.135,0,0,0,10.5,7.875Z" transform="translate(-99.1 2243)"/>
  </g>
</svg>
