<svg xmlns="http://www.w3.org/2000/svg" viewBox="-5043 6591 24 24">
  <defs>
    <style>
      .cls-1, .cls-2 {
        fill: #2c84c8;
      }

      .cls-1 {
        opacity: 0.25;
      }
    </style>
  </defs>
  <g id="URL" transform="translate(-5416 6364)">
    <rect id="Rectangle_149" data-name="Rectangle 149" class="cls-1" width="24" height="24" transform="translate(373 227)"/>
    <path id="link-solid" class="cls-2" d="M7.654,4.345a3.561,3.561,0,0,1,.008,5.029l-.008.009L6.079,10.958A3.562,3.562,0,0,1,1.041,5.92l.87-.87a.375.375,0,0,1,.64.249,4.319,4.319,0,0,0,.227,1.236.377.377,0,0,1-.089.389l-.307.307a1.688,1.688,0,1,0,2.371,2.4L6.329,8.057a1.687,1.687,0,0,0,0-2.387,1.756,1.756,0,0,0-.242-.2.376.376,0,0,1-.163-.3.934.934,0,0,1,.274-.7l.493-.493a.377.377,0,0,1,.482-.041A3.574,3.574,0,0,1,7.654,4.345Zm3.3-3.3a3.566,3.566,0,0,0-5.038,0L4.344,2.616l-.008.009a3.563,3.563,0,0,0,.489,5.432.377.377,0,0,0,.482-.041L5.8,7.523a.934.934,0,0,0,.274-.7.376.376,0,0,0-.163-.3,1.756,1.756,0,0,1-.242-.2,1.687,1.687,0,0,1,0-2.387L7.245,2.367a1.688,1.688,0,1,1,2.371,2.4l-.307.307a.377.377,0,0,0-.089.389A4.319,4.319,0,0,1,9.448,6.7a.375.375,0,0,0,.64.249l.87-.87a3.566,3.566,0,0,0,0-5.038Z" transform="translate(379 233)"/>
  </g>
</svg>
