<svg xmlns="http://www.w3.org/2000/svg" viewBox="-5311 6627 24 24">
  <defs>
    <style>
      .cls-1, .cls-2 {
        fill: #ff8949;
      }

      .cls-2 {
        opacity: 0.25;
      }
    </style>
  </defs>
  <g id="Feedback" transform="translate(-5409 6363)">
    <path id="bullhorn-solid" class="cls-1" d="M12,5a1.327,1.327,0,0,0-.667-1.148V.667A.673.673,0,0,0,10.667,0a.665.665,0,0,0-.416.146L8.479,1.564a5.057,5.057,0,0,1-3.146,1.1h-4A1.333,1.333,0,0,0,0,4V6A1.333,1.333,0,0,0,1.333,7.333h.7A5.063,5.063,0,0,0,1.99,8a5.278,5.278,0,0,0,.533,2.311.654.654,0,0,0,.592.355H4.662A.662.662,0,0,0,5.2,9.613,2.653,2.653,0,0,1,4.656,8a2.521,2.521,0,0,1,.092-.667h.585a5.056,5.056,0,0,1,3.145,1.1L10.25,9.854a.666.666,0,0,0,1.083-.52V6.149A1.328,1.328,0,0,0,12,5ZM10,7.946,9.311,7.4A6.392,6.392,0,0,0,5.333,6V4A6.392,6.392,0,0,0,9.311,2.6L10,2.054Z" transform="translate(104 272)"/>
    <path id="Path_693" data-name="Path 693" class="cls-2" d="M0,0H24V24H0Z" transform="translate(98 264)"/>
  </g>
</svg>
