<svg xmlns="http://www.w3.org/2000/svg" viewBox="-5310 6905 24 24">
  <defs>
    <style>
      .cls-1, .cls-2 {
        fill: #576062;
      }

      .cls-1 {
        opacity: 0.25;
      }
    </style>
  </defs>
  <g id="Wiki" transform="translate(-5409 6329)">
    <path id="Path_692" data-name="Path 692" class="cls-1" d="M0,0H24V24H0Z" transform="translate(99 576)"/>
    <path id="layer-group-solid" class="cls-2" d="M.288,3.462,5.748,5.938a.6.6,0,0,0,.5,0l5.459-2.477a.524.524,0,0,0,0-.938L6.247.047a.6.6,0,0,0-.5,0L.288,2.523A.524.524,0,0,0,.288,3.462ZM11.707,5.531l-1.361-.617L6.557,6.631a1.351,1.351,0,0,1-1.118,0L1.65,4.914.288,5.531a.523.523,0,0,0,0,.937L5.748,8.943a.6.6,0,0,0,.5,0l5.46-2.475a.523.523,0,0,0,0-.937Zm0,3L10.35,7.911,6.557,9.631a1.351,1.351,0,0,1-1.118,0L1.645,7.911.288,8.526a.523.523,0,0,0,0,.937l5.459,2.475a.6.6,0,0,0,.5,0l5.46-2.475A.523.523,0,0,0,11.707,8.526Z" transform="translate(105.002 582.007)"/>
  </g>
</svg>
