<svg xmlns="http://www.w3.org/2000/svg" viewBox="20223 4202 24 24">
  <defs>
    <style>
      .cls-1, .cls-2 {
        fill: #2c84c8;
      }

      .cls-2 {
        opacity: 0.25;
      }
    </style>
  </defs>
  <g id="Label" transform="translate(19549 2200)">
    <path id="tag-solid" class="cls-1" d="M0,5.909V1.125A1.125,1.125,0,0,1,1.125,0H5.909a1.125,1.125,0,0,1,.8.33L11.67,5.3a1.125,1.125,0,0,1,0,1.591L6.886,11.67a1.125,1.125,0,0,1-1.591,0L.33,6.7a1.125,1.125,0,0,1-.33-.8ZM2.625,1.5A1.125,1.125,0,1,0,3.75,2.625,1.125,1.125,0,0,0,2.625,1.5Z" transform="translate(680 2008)"/>
    <rect id="Rectangle_148" data-name="Rectangle 148" class="cls-2" width="24" height="24" transform="translate(674 2002)"/>
  </g>
</svg>
