<svg xmlns="http://www.w3.org/2000/svg" viewBox="-5311 6510 24 24">
  <defs>
    <style>
      .cls-1, .cls-2 {
        fill: #ff8949;
      }

      .cls-1 {
        opacity: 0.25;
      }
    </style>
  </defs>
  <g id="Choice" transform="translate(-6526 5299)">
    <rect id="Rectangle_144" data-name="Rectangle 144" class="cls-1" width="24" height="24" transform="translate(1215 1211)"/>
    <path id="question-solid_1_" data-name="question-solid (1)" class="cls-2" d="M29.732,0A4.541,4.541,0,0,0,25.7,2.133a.563.563,0,0,0,.121.77l1.011.767a.562.562,0,0,0,.779-.1,2.274,2.274,0,0,1,1.94-1.159c.721,0,1.613.464,1.613,1.163,0,.529-.436.8-1.148,1.2-.83.465-1.929,1.045-1.929,2.494V7.5a.562.562,0,0,0,.563.563h1.7a.562.562,0,0,0,.563-.563V7.365c0-1,2.936-1.046,2.936-3.765C33.845,1.553,31.722,0,29.732,0ZM29.5,8.753a1.624,1.624,0,1,0,1.624,1.624A1.625,1.625,0,0,0,29.5,8.753Z" transform="translate(1197.203 1217)"/>
  </g>
</svg>
