<svg xmlns="http://www.w3.org/2000/svg" viewBox="-5311 6666 24 24">
  <defs>
    <style>
      .cls-1, .cls-2 {
        fill: #68bd49;
      }

      .cls-1 {
        opacity: 0.25;
      }
    </style>
  </defs>
  <g id="Forum" transform="translate(-5409 6363)">
    <path id="Path_691" data-name="Path 691" class="cls-1" d="M0,0H24V24H0Z" transform="translate(98 303)"/>
    <path id="comments-solid" class="cls-2" d="M11.143,36.286C11.143,33.918,8.649,32,5.571,32S0,33.918,0,36.286A3.634,3.634,0,0,0,1.018,38.75a6.029,6.029,0,0,1-.959,1.46.213.213,0,0,0-.04.233.21.21,0,0,0,.2.129A4.716,4.716,0,0,0,2.59,39.9a6.816,6.816,0,0,0,2.981.67C8.649,40.571,11.143,38.654,11.143,36.286Zm3.268,5.893a3.629,3.629,0,0,0,1.018-2.464c0-1.792-1.433-3.327-3.463-3.967a3.981,3.981,0,0,1,.035.538c0,2.837-2.885,5.143-6.429,5.143a8.031,8.031,0,0,1-.849-.051A5.79,5.79,0,0,0,9.857,44a6.778,6.778,0,0,0,2.981-.67,4.716,4.716,0,0,0,2.376.67.211.211,0,0,0,.2-.129.215.215,0,0,0-.04-.233A5.965,5.965,0,0,1,14.411,42.179Z" transform="translate(102.2 277)"/>
  </g>
</svg>
