<svg xmlns="http://www.w3.org/2000/svg" viewBox="19949 4294 24 24">
  <defs>
    <style>
      .cls-1, .cls-2 {
        fill: #007f7b;
      }

      .cls-2 {
        opacity: 0.25;
      }
    </style>
  </defs>
  <g id="External_tool" data-name="External tool" transform="translate(19931 1905)">
    <path id="puzzle-piece-solid" class="cls-1" d="M12.174,6.765c-.973,0-1.395.74-1.923.74-1.406,0-.126-4.131-.126-4.131s-4.6,1.875-4.6-.077c0-.84.851-1.084.851-2.015A1.3,1.3,0,0,0,4.935,0,1.385,1.385,0,0,0,3.379,1.321c0,.969.743,1.389.743,1.916C4.122,4.868,0,3.908,0,3.908v7.81s4.187.962,4.187-.672c0-.527-.938-.94-.938-1.909a1.333,1.333,0,0,1,1.49-1.321A1.3,1.3,0,0,1,6.188,9.1c0,.931-.851,1.176-.851,2.015,0,1.425,3.039.6,4.248.6,0,0-.814-2.815.605-2.815.843,0,1.088.847,2.023.847A1.3,1.3,0,0,0,13.5,8.307,1.381,1.381,0,0,0,12.174,6.765Z" transform="translate(24.6 2395)"/>
    <rect id="Rectangle_146" data-name="Rectangle 146" class="cls-2" width="24" height="24" transform="translate(18 2389)"/>
  </g>
</svg>
