<svg xmlns="http://www.w3.org/2000/svg" viewBox="-5043 6387 24 24">
  <defs>
    <style>
      .cls-1, .cls-2 {
        fill: #68bd49;
      }

      .cls-1 {
        opacity: 0.25;
      }
    </style>
  </defs>
  <g id="Book" transform="translate(-5388 6375)">
    <rect id="Rectangle_147" data-name="Rectangle 147" class="cls-1" width="24" height="24" transform="translate(345 12)"/>
    <path id="book-solid" class="cls-2" d="M10.5,8.438V.563A.561.561,0,0,0,9.938,0H2.25A2.251,2.251,0,0,0,0,2.25v7.5A2.251,2.251,0,0,0,2.25,12H9.938a.561.561,0,0,0,.563-.562v-.375a.567.567,0,0,0-.209-.438,5.227,5.227,0,0,1,0-1.751A.559.559,0,0,0,10.5,8.438ZM3,3.141A.141.141,0,0,1,3.141,3H8.109a.141.141,0,0,1,.141.141v.469a.141.141,0,0,1-.141.141H3.141A.141.141,0,0,1,3,3.609Zm0,1.5A.141.141,0,0,1,3.141,4.5H8.109a.141.141,0,0,1,.141.141v.469a.141.141,0,0,1-.141.141H3.141A.141.141,0,0,1,3,5.109ZM8.939,10.5H2.25a.75.75,0,0,1,0-1.5H8.939A8.438,8.438,0,0,0,8.939,10.5Z" transform="translate(352 18)"/>
  </g>
</svg>
