<svg xmlns="http://www.w3.org/2000/svg" viewBox="-5309 6944 24 24">
  <defs>
    <style>
      .cls-1, .cls-2 {
        fill: #2c84c8;
      }

      .cls-1 {
        opacity: 0.25;
      }
    </style>
  </defs>
  <g id="Workshop" transform="translate(-5411 6368)">
    <path id="Path_694" data-name="Path 694" class="cls-1" d="M0,0H24V24H0Z" transform="translate(102 576)"/>
    <path id="compress-arrows-alt-solid_1_" data-name="compress-arrows-alt-solid (1)" class="cls-2" d="M4.736,6.8H2.111a.563.563,0,0,0-.4.961l.771.727L.159,10.814a.376.376,0,0,0,0,.53l.6.6a.376.376,0,0,0,.53,0L3.611,9.611l.729.773a.562.562,0,0,0,.959-.4V7.361A.561.561,0,0,0,4.736,6.8ZM7.361,5.3H9.986a.563.563,0,0,0,.4-.961l-.773-.727,2.327-2.327a.376.376,0,0,0,0-.53l-.6-.6a.376.376,0,0,0-.53,0L8.486,2.486l-.729-.773a.562.562,0,0,0-.959.4V4.736A.561.561,0,0,0,7.361,5.3Zm2.25,3.187.773-.729a.562.562,0,0,0-.4-.959H7.361a.561.561,0,0,0-.562.563V9.986a.563.563,0,0,0,.961.4l.727-.771,2.327,2.327a.376.376,0,0,0,.53,0l.6-.6a.376.376,0,0,0,0-.53ZM4.338,1.715l-.727.771L1.284.159a.376.376,0,0,0-.53,0l-.6.6a.376.376,0,0,0,0,.53L2.486,3.611l-.773.729a.562.562,0,0,0,.4.959H4.736A.561.561,0,0,0,5.3,4.736V2.111A.563.563,0,0,0,4.338,1.715Z" transform="translate(107.95 581.95)"/>
  </g>
</svg>
