<svg xmlns="http://www.w3.org/2000/svg" viewBox="-5311 6425 24 24">
  <defs>
    <style>
      .cls-1, .cls-2 {
        fill: #007f7b;
      }

      .cls-1 {
        opacity: 0.25;
      }
    </style>
  </defs>
  <g id="Assignment" transform="translate(-5411 6402)">
    <rect id="Rectangle_145" data-name="Rectangle 145" class="cls-1" width="24" height="24" transform="translate(100 23)"/>
    <path id="file-upload-solid" class="cls-2" d="M5.25,3.188V0H.563A.561.561,0,0,0,0,.563V11.438A.561.561,0,0,0,.563,12H8.438A.561.561,0,0,0,9,11.438V3.75H5.813A.564.564,0,0,1,5.25,3.188ZM6.778,8.25H5.25v1.875a.375.375,0,0,1-.375.375h-.75a.375.375,0,0,1-.375-.375V8.25H2.222a.375.375,0,0,1-.264-.641l2.26-2.243a.4.4,0,0,1,.563,0l2.26,2.243A.375.375,0,0,1,6.778,8.25ZM8.836,2.461,6.541.164A.562.562,0,0,0,6.143,0H6V3H9V2.857A.561.561,0,0,0,8.836,2.461Z" transform="translate(108 29)"/>
  </g>
</svg>
