<svg xmlns="http://www.w3.org/2000/svg" viewBox="-5044 6801 24 24">
  <defs>
    <style>
      .cls-1, .cls-2 {
        fill: #ff8949;
      }

      .cls-1 {
        opacity: 0.25;
      }
    </style>
  </defs>
  <g id="Custom_cert" data-name="Custom cert" transform="translate(-5416 6364)">
    <path id="Path_690" data-name="Path 690" class="cls-1" d="M0,0H24V24H0Z" transform="translate(372 437)"/>
    <path id="award-solid" class="cls-2" d="M2.274,8.491c-.2-.2-.1-.146-.589-.278a1.691,1.691,0,0,1-.6-.312L.026,10.508a.375.375,0,0,0,.362.516l1.235-.047.849.9a.375.375,0,0,0,.619-.116l1.22-2.991a1.682,1.682,0,0,1-2.037-.276Zm6.7,2.017L7.906,7.9a1.687,1.687,0,0,1-.6.312c-.494.132-.386.075-.589.278a1.682,1.682,0,0,1-2.037.276L5.9,11.758a.375.375,0,0,0,.619.116l.85-.9,1.235.047A.375.375,0,0,0,8.97,10.508ZM6.162,7.961c.358-.364.4-.333.909-.472a.952.952,0,0,0,.667-.679,1.506,1.506,0,0,1,.608-1.072.972.972,0,0,0,.244-.928,1.524,1.524,0,0,1,0-1.238.972.972,0,0,0-.244-.928,1.507,1.507,0,0,1-.608-1.072A.952.952,0,0,0,7.071.892,1.469,1.469,0,0,1,6.018.273.933.933,0,0,0,5.106.025a1.45,1.45,0,0,1-1.216,0,.932.932,0,0,0-.911.249A1.468,1.468,0,0,1,1.925.892a.952.952,0,0,0-.667.679A1.506,1.506,0,0,1,.65,2.644a.972.972,0,0,0-.244.928,1.524,1.524,0,0,1,0,1.238.973.973,0,0,0,.244.928,1.506,1.506,0,0,1,.608,1.072.952.952,0,0,0,.667.679c.525.143.564.12.909.472A.931.931,0,0,0,4,8.1a.93.93,0,0,1,1,0A.931.931,0,0,0,6.162,7.961ZM2.287,4.116A2.211,2.211,0,1,1,4.5,6.367a2.231,2.231,0,0,1-2.211-2.25Z" transform="translate(380.002 444.008)"/>
  </g>
</svg>
