<svg xmlns="http://www.w3.org/2000/svg" viewBox="-5311 6744 24 24">
  <defs>
    <style>
      .cls-1, .cls-2 {
        fill: #2c84c8;
      }

      .cls-1 {
        opacity: 0.25;
      }
    </style>
  </defs>
  <g id="Lesson" transform="translate(-5411 6402)">
    <path id="Path_693" data-name="Path 693" class="cls-1" d="M0,0H24V24H0Z" transform="translate(100 342)"/>
    <path id="project-diagram-solid" class="cls-2" d="M9,7.5H6a.75.75,0,0,0-.75.75v3A.75.75,0,0,0,6,12H9a.75.75,0,0,0,.75-.75v-3A.75.75,0,0,0,9,7.5ZM4.5.75A.75.75,0,0,0,3.75,0h-3A.75.75,0,0,0,0,.75v3a.75.75,0,0,0,.75.75H2.993l1.715,3A1.5,1.5,0,0,1,6,6.75h.007L4.5,4.114V3H9.75V1.5H4.5ZM14.25,0h-3a.75.75,0,0,0-.75.75v3a.75.75,0,0,0,.75.75h3A.75.75,0,0,0,15,3.75v-3A.75.75,0,0,0,14.25,0Z" transform="translate(105 348)"/>
  </g>
</svg>
